<?xml version="1.0" standalone="no"?>
<!DOCTYPE svg PUBLIC "-//W3C//DTD SVG 20010904//EN"
 "http://www.w3.org/TR/2001/REC-SVG-20010904/DTD/svg10.dtd">
<svg version="1.0" xmlns="http://www.w3.org/2000/svg"
 width="512.000000pt" height="512.000000pt" viewBox="0 0 512.000000 512.000000"
 preserveAspectRatio="xMidYMid meet">

<g transform="translate(0.000000,512.000000) scale(0.100000,-0.100000)"
fill="white" stroke="none">
<path d="M2652 5103 c-18 -9 -43 -30 -55 -47 l-22 -31 -5 -1730 -5 -1730 -23
-65 c-67 -184 -210 -320 -398 -376 -78 -23 -218 -23 -299 0 -187 55 -337 201
-396 386 -28 85 -30 231 -5 314 31 106 74 176 155 257 109 108 200 149 370
168 88 10 117 24 155 75 20 27 21 39 21 474 0 416 -1 449 -18 477 -40 64 -57
70 -212 69 -155 -2 -276 -22 -437 -74 -499 -163 -904 -565 -1068 -1059 -172
-518 -92 -1060 222 -1506 81 -115 278 -312 393 -393 610 -430 1418 -412 2000
43 285 223 496 541 589 886 54 202 56 240 56 1098 0 435 2 791 4 791 1 0 47
-21 102 -46 133 -62 303 -118 454 -148 143 -29 389 -52 444 -42 48 9 103 58
116 104 6 22 10 201 10 452 0 411 0 416 -23 460 -32 64 -65 79 -199 90 -139
12 -235 38 -353 95 -104 50 -174 100 -264 188 -166 163 -258 363 -285 620 -14
141 -26 168 -87 199 -31 16 -74 18 -469 18 -380 0 -439 -2 -468 -17z"/>
</g>
</svg>
