<?xml version="1.0" standalone="no"?>
<!DOCTYPE svg PUBLIC "-//W3C//DTD SVG 20010904//EN"
 "http://www.w3.org/TR/2001/REC-SVG-20010904/DTD/svg10.dtd">
<svg version="1.0" xmlns="http://www.w3.org/2000/svg"
 width="310.000000pt" height="297.000000pt" viewBox="0 0 310.000000 297.000000"
 preserveAspectRatio="xMidYMid meet">

<g transform="translate(0.000000,297.000000) scale(0.100000,-0.100000)"
fill="white" stroke="none">
<path d="M0 2928 c0 -7 268 -371 595 -808 l594 -795 -28 -30 c-496 -532 -1161
-1260 -1161 -1271 0 -12 20 -14 127 -12 l127 3 523 565 c287 310 526 566 532
568 5 2 202 -254 436 -567 l427 -571 464 0 c370 0 464 3 458 12 -6 11 -1153
1549 -1241 1665 l-24 31 561 606 c308 333 560 608 560 611 0 3 -60 5 -134 5
l-133 0 -483 -522 c-265 -288 -486 -524 -490 -526 -4 -2 -185 233 -401 523
l-393 525 -458 0 c-360 0 -458 -3 -458 -12z m1725 -1409 c501 -670 925 -1239
943 -1264 l34 -45 -214 0 -213 0 -935 1252 c-514 688 -939 1257 -943 1265 -7
11 29 13 205 12 l213 0 910 -1220z"/>
</g>
</svg>
